<svg width="280" height="42" viewBox="0 0 280 42" fill="none" xmlns="http://www.w3.org/2000/svg">
<path d="M257.69 31.82V29.58L259.5 26.42H258.5L257.3 28.69H257.28L256.08 26.42H255.02L256.84 29.61V31.82H257.69ZM251.03 31.82V30.24L251.91 29.21L253.43 31.82H254.45L252.49 28.52L254.29 26.42H253.25L251.03 29.09V26.42H250.17V31.82H251.03ZM248.42 26.42H247.56V31.82H248.42V26.42ZM246.45 31.82V31.05H244.1V26.42H243.24V31.82H246.45ZM240.69 27.93C240.69 28.45 240.21 28.7 239.4 28.7H238.89V27.18H239.37C240.26 27.17 240.69 27.38 240.69 27.93ZM240.87 30.24C240.87 30.55 240.72 30.8 240.43 30.92C240.14 31.05 239.74 31.07 239.3 31.07H238.88V29.44H239.74C240.45 29.45 240.87 29.74 240.87 30.24ZM238.03 31.82H239.33C239.85 31.82 240.41 31.77 240.85 31.6C241.44 31.37 241.78 30.9 241.78 30.28C241.78 29.65 241.41 29.22 240.68 29.01C241.3 28.78 241.55 28.38 241.55 27.87C241.55 27.23 241.26 26.88 240.74 26.64C240.32 26.46 239.85 26.41 239.4 26.41H238.03V31.82ZM236.35 26.42H235.49V29.38C235.49 30.58 235 31.16 234.16 31.16C233.33 31.16 232.83 30.58 232.83 29.38V26.42H231.97V29.29C231.97 31 232.66 31.93 234.14 31.93C235.66 31.93 236.35 30.99 236.35 29.29V26.42ZM229.91 28.11C229.91 28.52 229.71 28.78 229.35 28.92C229.13 29.01 228.89 29.03 228.24 29.03H227.93V27.18H228.2C228.94 27.18 229.11 27.21 229.25 27.26C229.68 27.39 229.91 27.69 229.91 28.11ZM227.93 31.82V29.8H228.1C228.91 29.8 229.22 29.76 229.5 29.69C230.27 29.47 230.82 28.85 230.82 28.09C230.82 27.15 230.07 26.59 229.14 26.46C228.91 26.43 228.62 26.42 228.07 26.42H227.07V31.82H227.93ZM225.46 31.82V31.05H223.01V29.43H225.46V28.66H223.01V27.18H225.46V26.41H222.15V31.81H225.46V31.82ZM219.62 28.07C219.62 28.72 219.05 28.92 217.92 28.92H217.64V27.17H217.87C219.3 27.17 219.62 27.39 219.62 28.07ZM216.78 26.42V31.82H217.64V29.67H218.27L219.87 31.82H220.96L219.25 29.56C220.02 29.38 220.53 28.81 220.53 28.03C220.53 26.9 219.78 26.43 218 26.43H216.78V26.42ZM211.63 24.52L211.01 24.04L209.85 25.64L210.37 26.04L211.63 24.52ZM212 31.82V31.05H209.55V29.43H212V28.66H209.55V27.18H212V26.41H208.69V31.81H212V31.82ZM204.16 31.82V30.24L205.04 29.21L206.55 31.82H207.57L205.61 28.52L207.41 26.42H206.37L204.15 29.09V26.42H203.29V31.82H204.16ZM201.7 26.85C201.21 26.51 200.73 26.31 200.05 26.31C199.14 26.31 198.35 26.79 198.35 27.82C198.35 28.73 198.99 29.04 199.65 29.27C200.33 29.51 201.02 29.66 201.02 30.3C201.02 30.92 200.52 31.17 200.01 31.17C199.5 31.17 199.13 31.01 198.64 30.55L198.09 31.14C198.66 31.69 199.25 31.94 200.01 31.94C200.77 31.94 201.93 31.47 201.93 30.24C201.93 29.24 201.19 28.9 200.49 28.67C199.84 28.45 199.21 28.31 199.21 27.78C199.21 27.33 199.57 27.08 200.11 27.08C200.55 27.08 200.92 27.27 201.22 27.48L201.7 26.85ZM196.94 31.82V31.05H194.49V29.43H196.94V28.66H194.49V27.18H196.94V26.41H193.63V31.81H196.94V31.82ZM189.25 24.52L190.22 26.01H191.05L192.04 24.52L191.53 24.18L190.65 25.4L189.77 24.18L189.25 24.52ZM191.96 30.81C191.6 31.05 191.2 31.17 190.8 31.17C189.61 31.17 188.79 30.38 188.79 29.12C188.79 27.94 189.65 27.07 190.81 27.07C191.2 27.07 191.56 27.18 191.88 27.37L192.28 26.72C191.85 26.45 191.36 26.3 190.82 26.3C189.19 26.3 187.88 27.5 187.88 29.11C187.88 30.83 189.18 31.92 190.8 31.92C191.39 31.92 191.94 31.74 192.4 31.42L191.96 30.81ZM183.67 26.42H182.37L180.7 30.63H180.69L179.06 26.42H177.76V31.82H178.62V27.48L180.36 31.82H181.03L182.79 27.47V31.82H183.65V26.42H183.67ZM176.08 26.42H175.22V29.38C175.22 30.58 174.73 31.16 173.89 31.16C173.06 31.16 172.56 30.58 172.56 29.38V26.42H171.7V29.29C171.7 31 172.39 31.93 173.87 31.93C175.39 31.93 176.08 30.99 176.08 29.29V26.42ZM167.3 31.82V30.24L168.18 29.21L169.7 31.82H170.72L168.76 28.52L170.56 26.42H169.52L167.3 29.09V26.42H166.44V31.82H167.3ZM165.06 26.86V26.42H161.44V27.19H163.86L161.42 31.35V31.82H165.27V31.05H162.59L165.06 26.86ZM159.64 24.52L159.01 24.04L157.85 25.64L158.37 26.04L159.64 24.52ZM158.84 31.82V29.58L160.65 26.42H159.65L158.45 28.69H158.43L157.23 26.42H156.17L157.99 29.61V31.82H158.84ZM155.6 26.42H154.67L153.11 30.69H153.09L151.53 26.42H150.55L152.61 31.82H153.5L155.6 26.42Z" fill="white"/>
<path d="M278.35 11.85L277.72 11.37L276.56 12.97L277.08 13.37L278.35 11.85ZM277.55 19.15V16.91L279.36 13.75H278.36L277.16 16.02H277.14L275.94 13.75H274.88L276.7 16.94V19.15H277.55ZM270.93 19.15V17.57L271.81 16.54L273.33 19.15H274.35L272.39 15.85L274.19 13.75H273.15L270.93 16.42V13.75H270.07V19.15H270.93ZM268.46 18.14C268.1 18.38 267.7 18.5 267.3 18.5C266.11 18.5 265.29 17.71 265.29 16.45C265.29 15.27 266.15 14.4 267.31 14.4C267.7 14.4 268.06 14.51 268.38 14.7L268.78 14.05C268.35 13.78 267.86 13.63 267.32 13.63C265.69 13.63 264.38 14.83 264.38 16.44C264.38 18.15 265.68 19.25 267.3 19.25C267.89 19.25 268.44 19.07 268.9 18.75L268.46 18.14ZM262.95 13.76H262.09V19.16H262.95V13.76ZM259.43 19.15H260.33V13.75H259.47V17.76L256.52 13.75H255.63V19.15H256.49V15.14L259.43 19.15ZM254.41 14.52V13.75H250.82V14.52H252.18V19.15H253.04V14.52H254.41ZM249.23 16.46C249.23 17.64 248.41 18.51 247.28 18.51C246.15 18.51 245.33 17.65 245.33 16.46C245.33 15.28 246.15 14.41 247.28 14.41C248.41 14.41 249.23 15.27 249.23 16.46ZM250.14 16.46C250.14 14.9 248.91 13.65 247.28 13.65C245.65 13.65 244.42 14.9 244.42 16.46C244.42 18.02 245.65 19.27 247.28 19.27C248.91 19.27 250.14 18.02 250.14 16.46ZM243.94 13.76H243.01L241.45 18.03H241.43L239.87 13.76H238.89L240.95 19.16H241.84L243.94 13.76ZM236.36 14.88H236.38L237.25 17.26H235.49L236.36 14.88ZM233.87 19.15H234.8L235.21 18.02H237.53L237.95 19.15H238.93L236.87 13.75H235.98L233.87 19.15ZM231.72 15.4C231.72 16.05 231.15 16.25 230.01 16.25H229.74V14.5H229.97C231.4 14.5 231.72 14.72 231.72 15.4ZM228.88 13.76V19.16H229.74V17.01H230.37L231.97 19.16H233.06L231.35 16.9C232.12 16.72 232.63 16.15 232.63 15.37C232.63 14.24 231.88 13.77 230.1 13.77H228.88V13.76ZM226.6 16.49C226.6 17.52 226.08 18.06 225.22 18.26C224.86 18.35 224.48 18.38 223.79 18.38V14.52C224.89 14.52 225.31 14.61 225.68 14.8C226.26 15.1 226.6 15.67 226.6 16.49ZM227.5 16.43C227.5 15.11 226.8 14.37 225.9 14.01C225.53 13.86 225.11 13.75 223.67 13.75H222.91V19.15H223.71C224.99 19.15 225.34 19.06 225.67 18.97C226.7 18.72 227.5 17.89 227.5 16.43ZM221.53 14.19V13.75H217.91V14.52H220.33L217.89 18.68V19.15H221.75V18.38H219.07L221.53 14.19ZM213.19 16.46C213.19 17.64 212.37 18.51 211.24 18.51C210.11 18.51 209.29 17.65 209.29 16.46C209.29 15.28 210.11 14.41 211.24 14.41C212.37 14.41 213.19 15.27 213.19 16.46ZM214.1 16.46C214.1 14.9 212.87 13.65 211.24 13.65C209.61 13.65 208.38 14.9 208.38 16.46C208.38 18.02 209.61 19.27 211.24 19.27C212.87 19.27 214.1 18.02 214.1 16.46ZM206.33 15.4C206.33 16.05 205.76 16.25 204.63 16.25H204.35V14.5H204.58C206.01 14.5 206.33 14.72 206.33 15.4ZM203.49 13.76V19.16H204.35V17.01H204.98L206.58 19.16H207.67L205.96 16.9C206.73 16.72 207.24 16.15 207.24 15.37C207.24 14.24 206.49 13.77 204.71 13.77H203.49V13.76ZM201.38 15.44C201.38 15.85 201.18 16.11 200.82 16.25C200.6 16.34 200.36 16.36 199.71 16.36H199.4V14.51H199.67C200.41 14.51 200.58 14.54 200.72 14.59C201.15 14.72 201.38 15.03 201.38 15.44ZM199.4 19.15V17.13H199.57C200.38 17.13 200.69 17.09 200.97 17.02C201.74 16.8 202.29 16.18 202.29 15.42C202.29 14.48 201.54 13.92 200.61 13.79C200.38 13.76 200.09 13.75 199.54 13.75H198.54V19.15H199.4ZM191.91 14.88H191.93L192.8 17.26H191.04L191.91 14.88ZM189.42 19.15H190.35L190.76 18.02H193.08L193.5 19.15H194.48L192.42 13.75H191.51L189.42 19.15ZM187.27 15.4C187.27 16.05 186.7 16.25 185.56 16.25H185.28V14.5H185.51C186.95 14.5 187.27 14.72 187.27 15.4ZM184.43 13.76V19.16H185.29V17.01H185.92L187.52 19.16H188.61L186.9 16.9C187.67 16.72 188.18 16.15 188.18 15.37C188.18 14.24 187.43 13.77 185.65 13.77H184.43V13.76ZM182.82 13.76H181.96V16.72C181.96 17.92 181.47 18.5 180.63 18.5C179.8 18.5 179.3 17.92 179.3 16.72V13.76H178.44V16.63C178.44 18.34 179.13 19.27 180.61 19.27C182.13 19.27 182.82 18.33 182.82 16.63V13.76ZM177.27 14.52V13.75H173.68V14.52H175.04V19.15H175.9V14.52H177.27ZM171.55 19.15H172.45V13.75H171.59V17.76L168.64 13.75H167.75V19.15H168.61V15.14L171.55 19.15ZM166.15 19.15V18.38H163.7V16.76H166.15V15.99H163.7V14.51H166.15V13.74H162.83V19.14H166.15V19.15ZM161.28 16.08H159.16V16.83H160.44V17.94C160.08 18.31 159.61 18.51 159.04 18.51C157.85 18.51 157.04 17.72 157.04 16.46C157.04 15.29 157.88 14.41 159.04 14.41C159.65 14.41 160.19 14.69 160.54 15.14L161.17 14.61C160.64 14.02 159.9 13.64 159.06 13.64C157.46 13.64 156.14 14.84 156.14 16.45C156.14 18.16 157.44 19.26 159.06 19.26C159.96 19.26 160.77 18.87 161.3 18.21V16.08H161.28ZM153.05 14.88H153.07L153.94 17.26H152.18L153.05 14.88ZM150.56 19.15H151.49L151.9 18.02H154.22L154.64 19.15H155.62L153.56 13.75H152.67L150.56 19.15Z" fill="white"/>
<path d="M100.95 20.88C100.95 32.27 91.8302 41.53 80.5002 41.76C89.0602 41.53 95.9402 34.51 95.9402 25.89C95.9402 24.14 95.6602 22.45 95.1302 20.88C93.8402 16.99 91.0702 13.76 87.5002 11.86C85.3602 10.72 82.9302 10.06 80.3502 10.02C80.2602 10.02 80.1602 10.02 80.0702 10.02C73.0602 10.02 67.1002 14.57 65.0102 20.88C64.4802 19.3 64.2002 17.62 64.2002 15.87C64.2002 13.32 64.8002 10.91 65.8702 8.78C68.3702 3.78 73.4502 0.28 79.3602 0.0100002C79.4502 0.0100002 79.5502 0 79.6402 0C79.7902 0 79.9302 0 80.0702 0C80.2202 0 80.3602 0 80.5002 0C91.8302 0.23 100.95 9.49 100.95 20.88Z" fill="#5B92E5"/>
<path d="M80.0703 24.61C82.1303 24.61 83.8003 22.94 83.8003 20.88C83.8003 18.82 82.1303 17.15 80.0703 17.15C78.0103 17.15 76.3403 18.82 76.3403 20.88C76.3403 22.94 78.0103 24.61 80.0703 24.61Z" fill="#5B92E5"/>
<path d="M95.9402 25.89C95.9402 34.51 89.0702 41.53 80.5002 41.76C80.3502 41.76 80.2102 41.77 80.0702 41.77C79.9302 41.77 79.7802 41.77 79.6402 41.76C70.5202 41.57 62.8402 35.55 60.1902 27.27C59.5802 25.39 59.2402 23.39 59.2002 21.31V21.29C59.2002 21.15 59.2002 21.02 59.2002 20.88C59.2002 9.59001 68.1602 0.39001 79.3702 0.0100098C73.4602 0.27001 68.3802 3.77001 65.8802 8.78001C64.8102 10.91 64.2102 13.32 64.2102 15.87C64.2102 17.62 64.4902 19.31 65.0202 20.88C67.1102 27.19 73.0702 31.74 80.0802 31.74C83.5102 31.74 86.6802 30.65 89.2802 28.81C92.0002 26.88 94.0802 24.11 95.1502 20.88C95.6602 22.45 95.9402 24.14 95.9402 25.89Z" fill="#87CEFA"/>
<path d="M49.67 13.5H46.91L41.57 28.07H41.54L36.2 13.49H33.28L40.33 31.91H42.54L49.67 13.5ZM30.78 14.87V13.5H18.83V15.76H27.33L18.62 30.57V31.91H31.43V29.65H22.12L30.78 14.87ZM8.1 17.34H8.13L11.21 25.73H5.03L8.1 17.34ZM16.39 31.91L9.34 13.49H7.13L0 31.91H2.76L4.18 27.99H12.02L13.47 31.91H16.39Z" fill="white"/>
<path d="M137.7 18.86C137.7 20.96 135.88 21.86 133.44 21.86H131.15V15.76H133.97C136.2 15.76 137.7 17 137.7 18.86ZM141.73 31.91L135.89 23.96C138.15 23.49 140.39 21.91 140.39 18.78C140.39 14.96 136.92 13.49 134.1 13.49H128.63V31.91H131.16V24.12H133.05L138.57 31.91H141.73ZM121.34 12.13L124.23 8.59999L122.81 7.48999L120.15 10.54L117.47 7.48999L116.02 8.59999L118.84 12.13H121.34ZM125.86 30.55L124.52 28.68C123.23 29.55 121.89 29.97 120.44 29.97C116.23 29.97 113.23 27.18 113.23 22.71C113.23 18.5 116.28 15.45 120.44 15.45C121.81 15.45 123.1 15.87 124.2 16.56L125.38 14.61C123.93 13.72 122.25 13.19 120.43 13.19C114.98 13.19 110.54 17.27 110.54 22.71C110.54 28.52 114.93 32.23 120.43 32.23C122.42 32.23 124.29 31.63 125.86 30.55Z" fill="white"/>
</svg>
