<svg width="280" height="43" viewBox="0 0 280 43" fill="none" xmlns="http://www.w3.org/2000/svg">
<path d="M258.14 32.45V30.21L259.95 27.05H258.95L257.75 29.32H257.73L256.53 27.05H255.47L257.29 30.24V32.45H258.14ZM251.48 32.45V30.87L252.36 29.84L253.88 32.45H254.9L252.94 29.15L254.74 27.05H253.7L251.48 29.72V27.05H250.62V32.45H251.48ZM248.87 27.05H248.01V32.45H248.87V27.05ZM246.9 32.45V31.68H244.55V27.05H243.69V32.45H246.9ZM241.14 28.56C241.14 29.08 240.66 29.33 239.85 29.33H239.34V27.81H239.82C240.71 27.8 241.14 28.01 241.14 28.56ZM241.32 30.87C241.32 31.18 241.17 31.43 240.88 31.55C240.59 31.68 240.19 31.7 239.75 31.7H239.33V30.07H240.19C240.9 30.08 241.32 30.37 241.32 30.87ZM238.48 32.45H239.78C240.3 32.45 240.86 32.4 241.3 32.23C241.89 32 242.23 31.53 242.23 30.91C242.23 30.28 241.86 29.85 241.13 29.64C241.75 29.41 242 29.01 242 28.5C242 27.86 241.71 27.51 241.19 27.27C240.77 27.09 240.3 27.04 239.85 27.04H238.48V32.45ZM236.8 27.05H235.94V30.01C235.94 31.21 235.45 31.79 234.61 31.79C233.78 31.79 233.28 31.21 233.28 30.01V27.05H232.42V29.92C232.42 31.63 233.11 32.56 234.59 32.56C236.11 32.56 236.8 31.62 236.8 29.92V27.05ZM230.36 28.74C230.36 29.15 230.16 29.41 229.8 29.55C229.58 29.64 229.34 29.66 228.69 29.66H228.38V27.81H228.65C229.39 27.81 229.56 27.84 229.7 27.89C230.13 28.02 230.36 28.32 230.36 28.74ZM228.38 32.45V30.43H228.55C229.36 30.43 229.67 30.39 229.95 30.32C230.72 30.1 231.27 29.48 231.27 28.72C231.27 27.78 230.52 27.22 229.59 27.09C229.36 27.06 229.07 27.05 228.52 27.05H227.52V32.45H228.38ZM225.91 32.45V31.68H223.46V30.06H225.91V29.29H223.46V27.81H225.91V27.04H222.6V32.44H225.91V32.45ZM220.07 28.7C220.07 29.35 219.5 29.55 218.37 29.55H218.09V27.8H218.32C219.75 27.8 220.07 28.02 220.07 28.7ZM217.23 27.05V32.45H218.09V30.3H218.72L220.32 32.45H221.41L219.7 30.19C220.47 30.01 220.98 29.44 220.98 28.66C220.98 27.53 220.23 27.06 218.45 27.06H217.23V27.05ZM212.08 25.15L211.46 24.67L210.3 26.27L210.82 26.67L212.08 25.15ZM212.45 32.45V31.68H210V30.06H212.45V29.29H210V27.81H212.45V27.04H209.14V32.44H212.45V32.45ZM204.61 32.45V30.87L205.49 29.84L207 32.45H208.02L206.06 29.15L207.86 27.05H206.82L204.6 29.72V27.05H203.74V32.45H204.61ZM202.15 27.48C201.66 27.14 201.18 26.94 200.5 26.94C199.59 26.94 198.8 27.42 198.8 28.45C198.8 29.36 199.44 29.67 200.1 29.9C200.78 30.14 201.47 30.29 201.47 30.93C201.47 31.55 200.97 31.8 200.46 31.8C199.95 31.8 199.58 31.64 199.09 31.18L198.54 31.77C199.11 32.32 199.7 32.57 200.46 32.57C201.22 32.57 202.38 32.1 202.38 30.87C202.38 29.87 201.64 29.53 200.94 29.3C200.29 29.08 199.66 28.94 199.66 28.41C199.66 27.96 200.02 27.71 200.56 27.71C201 27.71 201.37 27.9 201.67 28.11L202.15 27.48ZM197.39 32.45V31.68H194.94V30.06H197.39V29.29H194.94V27.81H197.39V27.04H194.08V32.44H197.39V32.45ZM189.7 25.15L190.67 26.64H191.5L192.49 25.15L191.98 24.81L191.1 26.03L190.22 24.81L189.7 25.15ZM192.41 31.44C192.05 31.68 191.65 31.8 191.25 31.8C190.06 31.8 189.24 31.01 189.24 29.75C189.24 28.57 190.1 27.7 191.26 27.7C191.65 27.7 192.01 27.81 192.33 28L192.73 27.35C192.3 27.08 191.81 26.93 191.27 26.93C189.64 26.93 188.33 28.13 188.33 29.74C188.33 31.46 189.63 32.55 191.25 32.55C191.84 32.55 192.39 32.37 192.85 32.05L192.41 31.44ZM184.12 27.05H182.82L181.15 31.26H181.14L179.51 27.05H178.21V32.45H179.07V28.11L180.81 32.45H181.48L183.24 28.1V32.45H184.1V27.05H184.12ZM176.53 27.05H175.67V30.01C175.67 31.21 175.18 31.79 174.34 31.79C173.51 31.79 173.01 31.21 173.01 30.01V27.05H172.15V29.92C172.15 31.63 172.84 32.56 174.32 32.56C175.84 32.56 176.53 31.62 176.53 29.92V27.05ZM167.75 32.45V30.87L168.63 29.84L170.15 32.45H171.17L169.21 29.15L171.01 27.05H169.97L167.75 29.72V27.05H166.89V32.45H167.75ZM165.51 27.49V27.05H161.89V27.82H164.31L161.87 31.98V32.45H165.72V31.68H163.04L165.51 27.49ZM160.09 25.15L159.46 24.67L158.3 26.27L158.82 26.67L160.09 25.15ZM159.29 32.45V30.21L161.1 27.05H160.1L158.9 29.32H158.88L157.68 27.05H156.62L158.44 30.24V32.45H159.29ZM156.05 27.05H155.12L153.56 31.32H153.54L151.98 27.05H151L153.06 32.45H153.95L156.05 27.05Z" fill="black"/>
<path d="M278.8 12.48L278.17 12L277.01 13.6L277.53 14L278.8 12.48ZM278 19.78V17.54L279.81 14.38H278.81L277.61 16.65H277.59L276.39 14.38H275.33L277.15 17.57V19.78H278ZM271.38 19.78V18.2L272.26 17.17L273.78 19.78H274.8L272.84 16.48L274.64 14.38H273.6L271.38 17.05V14.38H270.52V19.78H271.38ZM268.91 18.77C268.55 19.01 268.15 19.13 267.75 19.13C266.56 19.13 265.74 18.34 265.74 17.08C265.74 15.9 266.6 15.03 267.76 15.03C268.15 15.03 268.51 15.14 268.83 15.33L269.23 14.68C268.8 14.41 268.31 14.26 267.77 14.26C266.14 14.26 264.83 15.46 264.83 17.07C264.83 18.78 266.13 19.88 267.75 19.88C268.34 19.88 268.89 19.7 269.35 19.38L268.91 18.77ZM263.4 14.39H262.54V19.79H263.4V14.39ZM259.88 19.78H260.78V14.38H259.92V18.39L256.97 14.38H256.08V19.78H256.94V15.77L259.88 19.78ZM254.86 15.15V14.38H251.27V15.15H252.63V19.78H253.49V15.15H254.86ZM249.68 17.09C249.68 18.27 248.86 19.14 247.73 19.14C246.6 19.14 245.78 18.28 245.78 17.09C245.78 15.91 246.6 15.04 247.73 15.04C248.86 15.04 249.68 15.9 249.68 17.09ZM250.59 17.09C250.59 15.53 249.36 14.28 247.73 14.28C246.1 14.28 244.87 15.53 244.87 17.09C244.87 18.65 246.1 19.9 247.73 19.9C249.36 19.9 250.59 18.65 250.59 17.09ZM244.39 14.39H243.46L241.9 18.66H241.88L240.32 14.39H239.34L241.4 19.79H242.29L244.39 14.39ZM236.81 15.51H236.83L237.7 17.89H235.94L236.81 15.51ZM234.32 19.78H235.25L235.66 18.65H237.98L238.4 19.78H239.38L237.32 14.38H236.43L234.32 19.78ZM232.17 16.03C232.17 16.68 231.6 16.88 230.46 16.88H230.19V15.13H230.42C231.85 15.13 232.17 15.35 232.17 16.03ZM229.33 14.39V19.79H230.19V17.64H230.82L232.42 19.79H233.51L231.8 17.53C232.57 17.35 233.08 16.78 233.08 16C233.08 14.87 232.33 14.4 230.55 14.4H229.33V14.39ZM227.05 17.12C227.05 18.15 226.53 18.69 225.67 18.89C225.31 18.98 224.93 19.01 224.24 19.01V15.15C225.34 15.15 225.76 15.24 226.13 15.43C226.71 15.73 227.05 16.3 227.05 17.12ZM227.95 17.06C227.95 15.74 227.25 15 226.35 14.64C225.98 14.49 225.56 14.38 224.12 14.38H223.36V19.78H224.16C225.44 19.78 225.79 19.69 226.12 19.6C227.15 19.35 227.95 18.52 227.95 17.06ZM221.98 14.82V14.38H218.36V15.15H220.78L218.34 19.31V19.78H222.2V19.01H219.52L221.98 14.82ZM213.64 17.09C213.64 18.27 212.82 19.14 211.69 19.14C210.56 19.14 209.74 18.28 209.74 17.09C209.74 15.91 210.56 15.04 211.69 15.04C212.82 15.04 213.64 15.9 213.64 17.09ZM214.55 17.09C214.55 15.53 213.32 14.28 211.69 14.28C210.06 14.28 208.83 15.53 208.83 17.09C208.83 18.65 210.06 19.9 211.69 19.9C213.32 19.9 214.55 18.65 214.55 17.09ZM206.78 16.03C206.78 16.68 206.21 16.88 205.08 16.88H204.8V15.13H205.03C206.46 15.13 206.78 15.35 206.78 16.03ZM203.94 14.39V19.79H204.8V17.64H205.43L207.03 19.79H208.12L206.41 17.53C207.18 17.35 207.69 16.78 207.69 16C207.69 14.87 206.94 14.4 205.16 14.4H203.94V14.39ZM201.83 16.07C201.83 16.48 201.63 16.74 201.27 16.88C201.05 16.97 200.81 16.99 200.16 16.99H199.85V15.14H200.12C200.86 15.14 201.03 15.17 201.17 15.22C201.6 15.35 201.83 15.66 201.83 16.07ZM199.85 19.78V17.76H200.02C200.83 17.76 201.14 17.72 201.42 17.65C202.19 17.43 202.74 16.81 202.74 16.05C202.74 15.11 201.99 14.55 201.06 14.42C200.83 14.39 200.54 14.38 199.99 14.38H198.99V19.78H199.85ZM192.36 15.51H192.38L193.25 17.89H191.49L192.36 15.51ZM189.87 19.78H190.8L191.21 18.65H193.53L193.95 19.78H194.93L192.87 14.38H191.96L189.87 19.78ZM187.72 16.03C187.72 16.68 187.15 16.88 186.01 16.88H185.73V15.13H185.96C187.4 15.13 187.72 15.35 187.72 16.03ZM184.88 14.39V19.79H185.74V17.64H186.37L187.97 19.79H189.06L187.35 17.53C188.12 17.35 188.63 16.78 188.63 16C188.63 14.87 187.88 14.4 186.1 14.4H184.88V14.39ZM183.27 14.39H182.41V17.35C182.41 18.55 181.92 19.13 181.08 19.13C180.25 19.13 179.75 18.55 179.75 17.35V14.39H178.89V17.26C178.89 18.97 179.58 19.9 181.06 19.9C182.58 19.9 183.27 18.96 183.27 17.26V14.39ZM177.72 15.15V14.38H174.13V15.15H175.49V19.78H176.35V15.15H177.72ZM172 19.78H172.9V14.38H172.04V18.39L169.09 14.38H168.2V19.78H169.06V15.77L172 19.78ZM166.6 19.78V19.01H164.15V17.39H166.6V16.62H164.15V15.14H166.6V14.37H163.28V19.77H166.6V19.78ZM161.73 16.71H159.61V17.46H160.89V18.57C160.53 18.94 160.06 19.14 159.49 19.14C158.3 19.14 157.49 18.35 157.49 17.09C157.49 15.92 158.33 15.04 159.49 15.04C160.1 15.04 160.64 15.32 160.99 15.77L161.62 15.24C161.09 14.65 160.35 14.27 159.51 14.27C157.91 14.27 156.59 15.47 156.59 17.08C156.59 18.79 157.89 19.89 159.51 19.89C160.41 19.89 161.22 19.5 161.75 18.84V16.71H161.73ZM153.5 15.51H153.52L154.39 17.89H152.63L153.5 15.51ZM151.01 19.78H151.94L152.35 18.65H154.67L155.09 19.78H156.07L154.01 14.38H153.12L151.01 19.78Z" fill="black"/>
<path d="M101.4 21.51C101.4 32.9 92.2804 42.16 80.9504 42.39C89.5104 42.16 96.3904 35.14 96.3904 26.52C96.3904 24.77 96.1104 23.08 95.5804 21.51C94.2904 17.62 91.5204 14.39 87.9504 12.49C85.8104 11.35 83.3804 10.69 80.8004 10.65C80.7104 10.65 80.6104 10.65 80.5204 10.65C73.5104 10.65 67.5504 15.2 65.4604 21.51C64.9304 19.93 64.6504 18.25 64.6504 16.5C64.6504 13.95 65.2504 11.54 66.3204 9.41001C68.8204 4.41001 73.9004 0.910005 79.8104 0.640005C79.9004 0.640005 80.0004 0.630005 80.0904 0.630005C80.2404 0.630005 80.3804 0.630005 80.5204 0.630005C80.6704 0.630005 80.8104 0.630005 80.9504 0.630005C92.2804 0.860005 101.4 10.12 101.4 21.51Z" fill="#5B92E5"/>
<path d="M80.5205 25.24C82.5805 25.24 84.2505 23.57 84.2505 21.51C84.2505 19.45 82.5805 17.78 80.5205 17.78C78.4605 17.78 76.7905 19.45 76.7905 21.51C76.7905 23.57 78.4605 25.24 80.5205 25.24Z" fill="#5B92E5"/>
<path d="M96.3904 26.52C96.3904 35.14 89.5204 42.16 80.9504 42.39C80.8004 42.39 80.6604 42.4 80.5204 42.4C80.3804 42.4 80.2304 42.4 80.0904 42.39C70.9704 42.2 63.2904 36.18 60.6404 27.9C60.0304 26.02 59.6904 24.02 59.6504 21.94V21.92C59.6504 21.78 59.6504 21.65 59.6504 21.51C59.6504 10.22 68.6104 1.02 79.8204 0.639999C73.9104 0.899999 68.8304 4.4 66.3304 9.41C65.2604 11.54 64.6604 13.95 64.6604 16.5C64.6604 18.25 64.9404 19.94 65.4704 21.51C67.5604 27.82 73.5204 32.37 80.5304 32.37C83.9604 32.37 87.1304 31.28 89.7304 29.44C92.4504 27.51 94.5304 24.74 95.6004 21.51C96.1104 23.08 96.3904 24.77 96.3904 26.52Z" fill="#87CEFA"/>
<path d="M50.1202 14.13H47.3602L42.0202 28.7H41.9902L36.6502 14.12H33.7302L40.7802 32.54H42.9902L50.1202 14.13ZM31.2302 15.5V14.13H19.2802V16.39H27.7802L19.0702 31.2V32.54H31.8802V30.28H22.5702L31.2302 15.5ZM8.55019 17.97H8.5802L11.6602 26.36H5.48019L8.55019 17.97ZM16.8402 32.54L9.7902 14.12H7.5802L0.450195 32.54H3.21019L4.6302 28.62H12.4702L13.9202 32.54H16.8402Z" fill="black"/>
<path d="M138.15 19.49C138.15 21.59 136.33 22.49 133.89 22.49H131.6V16.39H134.42C136.65 16.39 138.15 17.63 138.15 19.49ZM142.18 32.54L136.34 24.59C138.6 24.12 140.84 22.54 140.84 19.41C140.84 15.59 137.37 14.12 134.55 14.12H129.08V32.54H131.61V24.75H133.5L139.02 32.54H142.18ZM121.79 12.76L124.68 9.23001L123.26 8.12001L120.6 11.17L117.92 8.12001L116.47 9.23001L119.29 12.76H121.79ZM126.31 31.18L124.97 29.31C123.68 30.18 122.34 30.6 120.89 30.6C116.68 30.6 113.68 27.81 113.68 23.34C113.68 19.13 116.73 16.08 120.89 16.08C122.26 16.08 123.55 16.5 124.65 17.19L125.83 15.24C124.38 14.35 122.7 13.82 120.88 13.82C115.43 13.82 110.99 17.9 110.99 23.34C110.99 29.15 115.38 32.86 120.88 32.86C122.87 32.86 124.74 32.26 126.31 31.18Z" fill="black"/>
</svg>
